<?xml version="1.0" standalone="no"?>
<!DOCTYPE svg PUBLIC "-//W3C//DTD SVG 20010904//EN"
 "http://www.w3.org/TR/2001/REC-SVG-20010904/DTD/svg10.dtd">
<svg version="1.0" xmlns="http://www.w3.org/2000/svg"
 width="750.000000pt" height="750.000000pt" viewBox="0 0 750.000000 750.000000"
 preserveAspectRatio="xMidYMid meet">
<metadata>
Created by potrace 1.14, written by Peter Selinger 2001-2017
</metadata>
<g transform="translate(0.000000,750.000000) scale(0.100000,-0.100000)"
fill="#000000" stroke="none">
<path d="M3204 5708 c-170 -205 -182 -249 -124 -428 25 -77 32 -118 36 -217
l6 -123 -27 -10 c-33 -12 -35 -12 -35 1 0 5 4 8 9 4 16 -9 18 28 3 75 -7 25
-17 71 -22 102 -5 33 -27 96 -54 150 -25 51 -55 120 -66 152 -49 144 -116 211
-255 256 -149 47 -225 64 -237 52 -7 -7 13 -48 63 -132 41 -67 81 -129 89
-138 8 -10 39 -45 68 -79 57 -67 79 -77 180 -86 29 -3 74 -16 99 -29 39 -19
50 -32 70 -76 l23 -54 -35 30 c-26 23 -47 32 -92 37 -94 11 -97 12 -158 44
-31 17 -62 28 -67 25 -15 -9 0 -83 24 -124 12 -19 38 -53 57 -76 20 -22 48
-61 63 -87 17 -30 45 -58 73 -75 24 -15 45 -32 45 -39 0 -19 -19 -26 -35 -13
-25 21 -104 40 -128 31 -28 -11 -97 -144 -99 -191 -2 -58 46 -173 82 -195 21
-13 9 -22 -22 -16 -46 10 -237 -31 -254 -53 -17 -24 -10 -51 37 -142 47 -90
77 -126 126 -149 41 -20 140 -23 171 -6 18 10 25 9 38 -4 25 -24 85 -36 127
-24 15 4 27 6 27 4 0 -3 -25 -23 -55 -45 -58 -43 -68 -60 -35 -60 34 0 22 -17
-32 -48 -72 -40 -98 -71 -87 -99 8 -22 12 -22 140 -19 l133 2 -45 -18 c-63
-26 -74 -33 -77 -53 -8 -38 76 -62 221 -64 58 -1 67 -3 67 -20 0 -16 -5 -17
-42 -11 -24 5 -46 6 -51 3 -14 -9 4 -23 31 -23 39 0 76 -12 63 -20 -6 -3 -46
0 -89 7 -95 17 -114 14 -118 -14 -3 -16 2 -23 19 -26 21 -4 21 -4 1 -6 -19 -1
-43 -41 -26 -41 4 0 8 -12 8 -26 2 -32 5 -34 43 -40 19 -3 31 -1 31 6 0 7 13
9 36 5 20 -3 42 -2 48 3 6 4 27 5 46 1 l35 -6 -32 -2 c-18 0 -33 -5 -33 -10 0
-5 15 -12 33 -16 17 -4 27 -9 20 -11 -6 -3 -37 2 -69 10 -40 10 -62 12 -70 5
-9 -7 -24 -7 -48 0 -22 5 -38 6 -42 0 -3 -5 1 -9 8 -9 7 -1 -4 -10 -24 -20
-20 -11 -39 -28 -42 -37 -4 -10 -28 -30 -54 -45 l-48 -26 -25 30 c-56 71 -142
8 -194 -141 l-12 -36 -7 36 c-10 55 -55 91 -119 97 -47 4 -56 1 -69 -17 -12
-17 -22 -20 -41 -16 -20 5 -32 1 -49 -17 -13 -13 -35 -29 -50 -36 -16 -6 -28
-16 -28 -21 0 -6 -19 -9 -42 -7 -24 2 -53 -1 -64 -6 -27 -12 -64 -77 -64 -111
0 -43 63 -96 165 -138 30 -12 30 -12 -32 -24 -91 -18 -151 -43 -159 -67 -7
-24 -1 -30 53 -51 46 -18 92 -28 136 -29 31 -1 32 -4 13 -37 -14 -25 -10 -61
7 -72 5 -4 21 -5 36 -2 47 7 55 7 122 -1 57 -7 71 -5 107 13 49 25 80 66 88
117 7 47 12 53 24 34 12 -19 13 -50 1 -50 -10 0 -27 -46 -35 -95 -9 -50 24
-81 104 -99 18 -4 32 -20 50 -58 13 -29 41 -81 62 -116 21 -34 38 -67 38 -73
0 -6 -23 8 -51 30 -29 23 -57 41 -63 42 -60 4 -89 11 -117 28 -18 11 -36 18
-40 15 -14 -8 79 -128 115 -149 l34 -20 -65 -55 c-90 -76 -106 -102 -106 -164
1 -51 26 -126 42 -126 18 0 111 112 111 134 0 12 -7 44 -16 70 -13 39 -14 52
-4 70 11 21 89 70 98 61 2 -2 -3 -16 -11 -32 -10 -18 -15 -52 -14 -90 2 -50 7
-66 27 -88 26 -28 134 -88 143 -79 3 3 1 20 -3 37 -5 18 -11 56 -14 85 -7 63
-14 77 -55 116 -36 35 -41 72 -10 81 17 6 29 -1 57 -31 19 -22 80 -86 136
-143 84 -87 113 -110 171 -136 97 -45 339 -125 551 -184 99 -28 207 -59 242
-70 58 -19 67 -19 98 -6 38 16 116 31 209 40 85 8 156 16 185 20 14 2 50 6 80
10 30 3 66 8 80 10 14 2 45 7 70 10 81 11 272 46 297 56 13 5 21 14 18 19 -4
6 -10 8 -15 5 -4 -2 -25 -7 -46 -11 -22 -3 -55 -9 -74 -14 -19 -5 -69 -14
-110 -20 -41 -6 -86 -13 -100 -16 -14 -2 -49 -6 -78 -9 -29 -3 -86 -10 -125
-15 -40 -6 -130 -17 -202 -25 -71 -7 -152 -21 -178 -30 -36 -12 -52 -13 -62
-5 -37 31 -103 233 -108 334 -4 67 12 129 50 189 23 36 55 49 68 27 11 -17 43
-11 50 10 4 13 16 20 33 21 15 0 68 2 117 4 87 3 173 10 245 20 19 2 53 7 75
9 22 3 63 7 90 11 54 6 103 10 260 20 173 11 215 12 215 4 0 -4 -4 -10 -8 -13
-10 -6 -131 -14 -324 -21 -159 -6 -330 -19 -390 -30 -22 -5 -185 -20 -240 -23
-15 -1 -40 -15 -57 -32 -17 -17 -32 -26 -36 -20 -11 17 -40 11 -54 -12 -35
-56 -48 -194 -26 -292 11 -53 45 -140 59 -155 13 -12 20 -11 58 4 49 19 61 21
217 30 63 3 117 8 120 9 3 2 42 7 86 11 44 3 89 8 100 10 11 3 49 7 85 10 130
12 275 36 287 49 15 15 -11 18 -59 8 -29 -6 -73 -14 -98 -17 -25 -3 -61 -8
-80 -10 -19 -3 -57 -7 -84 -10 -26 -2 -65 -7 -85 -9 -20 -3 -63 -8 -96 -11
-33 -2 -76 -7 -95 -10 -19 -3 -80 -7 -135 -10 -112 -5 -149 -11 -178 -27 -16
-8 -23 -7 -34 8 -27 37 -17 51 40 53 28 1 60 4 70 7 9 3 17 1 17 -4 0 -5 -23
-12 -50 -16 -28 -4 -57 -9 -65 -12 -22 -9 -7 -25 18 -19 35 8 70 13 95 14 19
1 22 5 17 21 -5 16 -2 20 14 20 12 0 21 5 21 10 0 9 -13 14 -31 12 -3 -1 -39
-4 -80 -8 -41 -3 -77 -7 -81 -8 -3 0 -7 3 -7 9 -1 5 29 11 66 13 75 3 97 8 89
20 -3 4 -44 6 -92 4 -58 -3 -84 -1 -80 6 3 6 14 10 24 10 15 0 63 4 175 18 70
8 112 13 177 19 36 4 81 8 100 10 19 2 71 7 115 10 44 4 82 9 85 12 6 5 -22
23 -30 18 -3 -2 -46 -6 -96 -9 -51 -4 -100 -8 -110 -10 -11 -2 -55 -7 -98 -11
-43 -4 -86 -8 -96 -10 -9 -2 -50 -6 -91 -10 -41 -4 -93 -10 -116 -15 -24 -4
-43 -4 -43 1 0 5 11 10 25 10 14 1 28 2 33 3 26 7 95 17 142 21 30 3 71 7 90
10 62 10 144 16 193 16 34 -1 47 3 44 12 -2 8 -28 12 -83 10 -78 -1 -78 -1
-24 8 30 4 80 11 110 14 30 4 71 8 90 10 49 6 300 23 368 24 17 1 32 6 32 11
0 6 -34 10 -82 10 -99 0 -99 6 0 13 78 5 96 12 72 27 -12 8 -10 10 8 10 12 0
22 5 22 11 0 8 -22 10 -76 6 -82 -7 -104 -14 -83 -28 10 -6 3 -9 -21 -10 -19
0 -48 -2 -65 -4 -16 -2 -59 -6 -95 -9 -112 -10 -145 -19 -135 -37 4 -5 -9 -9
-27 -10 -18 0 -40 -2 -48 -3 -8 -2 -40 -6 -70 -10 -212 -26 -233 -30 -238 -45
-3 -9 0 -11 8 -6 8 5 11 4 7 -2 -7 -11 -43 -11 -53 0 -7 6 -84 1 -131 -8 -12
-3 -24 -1 -27 4 -7 10 27 21 69 21 41 0 75 10 75 22 0 6 -28 8 -72 5 l-73 -6
75 14 c41 7 98 16 125 20 28 3 57 8 65 10 8 2 35 7 60 10 25 3 56 8 70 10 14
2 48 7 75 10 28 3 77 10 110 15 33 5 76 12 95 15 156 22 310 46 333 51 43 9
21 25 -26 19 -23 -3 -59 -7 -81 -10 -21 -2 -46 -7 -55 -9 -35 -11 -112 -15
-106 -7 8 14 -24 18 -70 10 -22 -4 -58 -9 -80 -12 -101 -14 -127 -21 -138 -37
-7 -10 -16 -18 -22 -18 -5 0 -28 -3 -50 -6 -22 -3 -60 -8 -85 -11 -25 -3 -72
-10 -105 -16 -33 -6 -69 -12 -80 -13 -11 -2 -40 -7 -65 -11 -30 -5 -42 -4 -35
3 10 10 158 36 270 47 101 10 135 16 135 26 0 5 -13 9 -30 9 -19 0 -30 5 -30
14 0 9 -9 12 -27 10 -16 -2 -68 -6 -118 -9 -49 -4 -112 -10 -138 -15 -40 -6
-47 -5 -45 8 2 11 16 16 48 17 25 1 70 5 100 9 64 7 115 12 225 21 44 4 83 9
87 11 4 2 9 1 12 -4 3 -5 0 -9 -7 -9 -24 -1 -122 -15 -126 -18 -1 -2 0 -8 3
-13 3 -5 38 -4 83 4 43 6 111 15 152 18 82 8 100 14 80 27 -11 7 -11 9 -1 10
6 1 17 3 22 4 6 1 15 3 20 4 6 0 10 6 10 11 0 11 -31 9 -235 -11 -145 -14
-181 -18 -270 -25 -44 -3 -83 -8 -87 -11 -5 -2 -8 1 -8 6 0 6 3 12 8 12 17 3
51 7 112 13 76 8 115 12 190 22 107 13 236 22 440 29 152 6 239 13 252 21 4 3
8 18 8 34 0 25 -27 55 -88 96 -2 1 -5 49 -7 106 -3 132 -27 230 -67 274 -18
20 -18 21 1 38 20 18 18 51 -4 60 -7 2 -46 -16 -86 -41 -69 -43 -155 -80 -164
-71 -6 6 -12 315 -7 366 3 29 10 45 21 49 9 3 44 16 79 29 79 30 90 30 30 -2
-48 -24 -63 -47 -30 -43 9 1 24 1 32 0 13 -1 13 -3 1 -10 -12 -8 -12 -12 3
-26 13 -14 24 -16 47 -9 17 5 30 13 29 17 -1 5 7 15 17 23 17 12 16 13 -7 14
-14 1 -19 4 -12 7 23 9 12 25 -14 20 -14 -2 -22 -1 -17 3 4 5 17 10 27 12 11
1 21 9 24 17 3 10 -2 12 -24 8 -19 -4 -13 1 18 15 73 33 76 81 6 86 -36 3 -77
13 -179 43 l-66 20 0 67 c0 71 -7 135 -19 165 -9 25 -40 35 -99 31 -27 -2
-162 -6 -300 -8 l-250 -4 38 22 c36 22 44 23 265 21 125 -2 314 -4 421 -5 106
-1 198 3 203 8 14 14 -2 42 -26 43 -11 1 -47 1 -78 2 -67 0 -79 16 -15 19 23
0 47 2 52 3 6 2 20 3 31 4 17 1 20 6 16 26 -2 14 -15 34 -28 44 -21 17 -22 20
-7 25 14 6 15 9 4 16 -19 11 -121 3 -243 -20 -28 -6 -53 -8 -55 -6 -4 4 63 21
127 32 40 6 64 9 133 13 9 1 17 6 17 12 0 14 -107 9 -189 -8 -35 -7 -66 -12
-68 -9 -5 5 129 34 191 41 64 7 70 12 49 43 -10 15 -23 36 -29 47 -6 11 -20
21 -32 23 -18 3 -20 6 -10 27 9 19 7 30 -6 50 -9 14 -23 25 -31 25 -8 0 -15 9
-15 20 0 12 -19 38 -41 59 -27 24 -38 41 -30 45 31 19 -9 96 -43 83 -10 -4
-13 -1 -9 9 8 23 -13 17 -72 -21 -30 -20 -55 -33 -55 -30 0 2 18 17 40 31 55
37 55 64 -1 32 -57 -32 -213 -160 -283 -232 l-59 -61 42 52 c61 76 164 167
254 226 91 60 104 85 25 52 -13 -5 -17 0 -20 21 -4 37 -20 40 -55 10 l-30 -25
-17 21 c-18 20 -18 20 -77 -38 -71 -70 -153 -183 -205 -281 -21 -40 -40 -71
-42 -69 -7 7 80 171 122 231 25 34 72 87 105 118 57 53 74 77 51 77 -20 0
-142 -125 -185 -191 -54 -80 -124 -229 -149 -314 -25 -86 -26 -87 -21 -17 13
148 86 362 177 513 16 25 28 51 28 58 0 59 -94 -104 -162 -279 -22 -58 -27
-66 -22 -35 9 61 61 210 102 294 65 135 63 131 49 131 -29 0 -146 -268 -171
-392 -28 -134 -37 -195 -42 -272 -3 -50 -8 -93 -9 -94 -2 -2 -14 16 -26 40
-34 67 -100 158 -115 158 -20 0 -18 -8 13 -49 l26 -36 -29 28 c-27 24 -54 35
-54 22 0 -3 27 -32 59 -64 62 -62 104 -120 116 -160 5 -15 -20 4 -76 61 -46
46 -107 99 -136 117 -51 33 -60 51 -25 51 40 0 82 41 133 129 29 49 63 95 77
102 36 20 112 108 133 154 10 22 20 60 24 85 9 65 15 82 40 112 13 15 31 49
41 75 10 26 26 60 36 75 29 43 14 49 -50 21 -37 -16 -86 -28 -142 -33 -47 -4
-104 -15 -128 -23 -23 -9 -44 -16 -47 -17 -3 0 -17 0 -31 0 -17 0 -38 -12 -60
-35 l-33 -35 -15 22 c-9 12 -16 28 -16 36 0 28 -48 62 -87 62 -21 0 -49 7 -61
16 -73 51 -180 -26 -276 -199 -37 -66 -88 -206 -80 -219 3 -4 12 -8 21 -8 10
0 14 6 10 20 -6 25 29 118 77 204 42 74 117 161 158 182 26 14 34 14 71 -1 23
-8 58 -17 77 -19 34 -4 70 -35 70 -61 0 -8 11 -27 25 -43 21 -25 24 -37 19
-69 -18 -116 -148 -250 -280 -289 -69 -20 -84 -39 -24 -31 53 7 155 57 196 95
40 39 81 47 161 32 72 -14 123 -48 123 -83 0 -33 -90 -186 -125 -212 -28 -21
-115 -44 -115 -30 0 3 17 29 39 58 44 59 53 81 44 102 -8 22 -56 45 -95 45
-50 0 -178 -29 -222 -51 -39 -19 -40 -19 -62 2 -13 12 -20 28 -17 39 6 23 -17
37 -31 19 -7 -9 -29 -14 -56 -14 -31 0 -55 -7 -76 -22 -18 -13 -55 -28 -84
-35 -49 -11 -53 -14 -81 -70 -16 -32 -30 -69 -31 -83 -3 -29 -7 -30 -51 -12
-18 8 -57 19 -87 26 -77 17 -97 29 -111 65 -7 17 -19 38 -26 48 -10 11 -11 18
-3 23 22 14 127 17 181 6 30 -7 71 -14 91 -17 42 -6 86 12 69 29 -7 7 -14 7
-23 -1 -13 -10 -96 -1 -119 14 -15 9 -159 6 -193 -4 -41 -11 -54 -35 -32 -57
9 -10 24 -35 33 -56 9 -24 25 -43 44 -51 35 -15 37 -24 7 -32 -69 -18 -145 2
-189 51 -30 33 -109 175 -109 197 0 22 25 33 124 51 101 19 103 19 252 -40 61
-25 125 -47 142 -50 50 -8 46 11 -6 26 -162 45 -294 167 -309 287 -6 51 61
185 95 190 32 5 107 -34 150 -76 42 -43 155 -273 154 -314 -1 -34 11 -43 29
-21 11 13 11 17 1 20 -6 3 -10 8 -7 13 10 16 -120 293 -145 310 -25 17 -28 47
-8 78 18 28 25 32 57 29 20 -2 49 0 64 5 50 18 119 -26 166 -104 22 -37 41
-49 41 -27 0 38 -113 159 -149 159 -5 0 -9 38 -10 85 -1 68 2 89 16 104 10 11
23 26 28 33 6 7 34 41 62 74 77 90 96 141 88 234 -4 41 -8 77 -10 81 -2 3 -6
45 -10 95 -11 173 -21 180 -111 72z m82 -11 c7 -102 15 -181 20 -188 2 -4 5
-36 6 -71 2 -76 -13 -105 -110 -224 l-64 -78 6 79 c11 147 26 216 84 387 25
76 48 135 51 133 3 -3 6 -20 7 -38z m-91 -104 c-32 -96 -61 -221 -68 -295 -2
-21 -6 -40 -9 -43 -3 -3 -15 29 -28 71 -35 118 -18 179 85 303 28 34 51 61 52
61 1 0 -13 -44 -32 -97z m-621 37 c139 -82 317 -236 355 -308 16 -30 11 -35
-22 -23 -15 6 -50 12 -79 15 -29 2 -65 9 -79 14 -35 14 -148 147 -200 236 -23
39 -49 81 -57 94 -8 12 -12 22 -8 22 3 0 43 -22 90 -50z m52 29 c160 -49 225
-105 275 -236 8 -22 -2 -15 -53 33 -76 72 -164 140 -244 188 -32 20 -56 36
-53 36 4 0 38 -10 75 -21z m144 -474 c0 -7 35 -41 77 -76 42 -35 104 -92 138
-126 l60 -61 -35 -5 c-19 -2 -42 -7 -51 -11 -23 -10 -80 33 -116 89 -37 57
-35 54 -86 116 -20 25 -43 65 -52 88 l-14 42 39 -22 c22 -13 40 -28 40 -34z
m179 -25 c45 -24 118 -155 109 -197 -2 -9 -36 18 -88 69 -47 46 -103 97 -125
115 l-40 32 63 -5 c35 -2 71 -8 81 -14z m1126 -357 c-119 -81 -201 -155 -246
-223 -32 -47 -36 -50 -68 -46 -18 3 -35 7 -37 8 -2 2 8 27 22 55 14 28 29 75
33 104 11 82 44 119 105 119 13 0 43 7 67 16 24 8 78 18 119 21 41 3 77 7 79
9 2 2 9 4 15 4 5 0 -34 -30 -89 -67z m125 43 c0 -15 -33 -76 -54 -100 -23 -26
-31 -46 -27 -69 2 -15 -22 -102 -37 -131 -19 -39 -101 -126 -118 -126 -8 0
-14 8 -14 18 0 26 -38 58 -87 73 -38 11 -41 14 -31 33 6 11 34 45 62 74 44 47
94 86 261 209 28 21 45 28 45 19z m350 -321 c0 -18 -14 -35 -57 -66 -81 -58
-221 -205 -273 -283 -47 -74 -65 -89 -26 -23 57 95 116 168 229 280 65 64 120
117 123 117 2 0 4 -11 4 -25z m-158 -80 c-37 -38 -89 -95 -115 -125 l-48 -55
56 80 c73 104 158 196 167 182 4 -7 -22 -41 -60 -82z m338 -21 c0 -15 -37 -53
-53 -54 -16 0 -177 -111 -243 -166 -83 -70 -176 -166 -211 -216 -32 -47 -39
-49 -17 -5 56 109 205 267 340 358 144 97 184 115 184 83z m-170 -8 c0 -3 -28
-26 -62 -52 -35 -26 -56 -40 -48 -31 14 14 102 85 108 86 1 1 2 -1 2 -3z
m-1165 -119 l30 -25 -28 -26 c-53 -50 -189 -107 -284 -120 -76 -11 -90 11 -53
83 21 42 73 91 96 91 8 0 34 10 57 22 23 13 51 26 62 29 22 6 74 -17 120 -54z
m344 39 c12 -13 12 -20 2 -38 -27 -51 -119 -154 -151 -171 -46 -24 -121 -17
-198 18 -53 24 -55 27 -36 38 65 37 98 81 82 110 -7 14 -6 18 4 16 7 -1 20 1
28 4 8 4 53 15 100 26 93 21 146 20 169 -3z m1001 0 c0 -2 -20 -11 -45 -21
-46 -17 -156 -75 -207 -109 -16 -10 -28 -16 -28 -14 0 5 160 114 220 151 17
10 31 12 43 6 9 -6 17 -11 17 -13z m-73 -76 c-94 -47 -223 -128 -277 -174
l-25 -21 20 24 c41 48 201 152 303 196 95 40 83 27 -21 -25z m10 -44 c-67 -35
-156 -85 -197 -111 -41 -26 -69 -41 -62 -32 35 42 355 222 374 211 4 -3 -47
-33 -115 -68z m-605 32 c-8 -8 -9 -4 -5 13 4 13 8 18 11 10 2 -7 -1 -18 -6
-23z m768 -23 c7 -8 10 -21 7 -29 -6 -15 -126 -76 -277 -141 -122 -52 -226
-110 -281 -156 -52 -43 -98 -57 -63 -18 60 67 242 192 424 291 126 69 167 80
190 53z m-1469 -97 c77 -40 164 -49 236 -23 l48 17 52 -30 c29 -17 55 -27 58
-22 6 10 -37 46 -66 55 -10 4 -19 11 -19 16 0 20 125 -70 208 -150 48 -46 67
-67 42 -47 -60 48 -159 104 -198 112 -54 11 -35 -9 46 -48 42 -21 91 -49 107
-64 26 -23 22 -22 -35 9 -73 40 -177 77 -215 77 -46 0 -26 -15 43 -33 38 -10
104 -38 148 -63 79 -45 125 -79 69 -51 -35 17 -118 44 -160 52 -167 32 -266
47 -272 42 -10 -11 1 -17 48 -27 59 -12 -257 -1 -441 16 -36 3 -73 7 -83 7 -9
1 -17 7 -17 12 0 13 212 18 286 6 60 -9 87 -5 63 10 -22 13 -114 22 -236 23
-61 1 -115 5 -120 10 -13 13 291 -1 382 -19 94 -18 95 -18 95 -5 0 5 -15 14
-32 19 -28 9 -25 9 22 5 30 -3 71 -9 90 -15 19 -5 41 -9 48 -9 18 0 10 23 -9
26 -7 1 -25 4 -39 7 -14 3 -101 17 -195 33 l-170 28 49 14 c43 12 56 12 104
-2 31 -8 58 -14 60 -11 10 9 -11 25 -43 31 -19 3 -32 10 -29 15 7 12 7 13 75
-23z m-426 7 l30 -13 -30 -1 c-16 0 -41 6 -55 14 l-25 14 25 0 c14 0 39 -6 55
-14z m1945 -5 c0 -5 -8 -10 -17 -10 -10 0 -29 -3 -43 -5 -16 -3 -12 0 10 9 43
18 50 19 50 6z m-1780 -39 c19 -5 52 -12 73 -16 20 -3 37 -10 37 -16 0 -6 -4
-8 -9 -5 -5 3 -50 7 -100 8 -50 1 -91 4 -91 8 0 12 24 30 40 30 8 0 31 -4 50
-9z m1796 -6 c19 -14 19 -14 -1 -15 -52 -2 -159 -23 -232 -46 -16 -5 -16 -4
-2 5 18 12 188 70 205 71 5 0 19 -7 30 -15z m-1607 -31 c2 -2 -12 -4 -32 -4
-20 0 -37 4 -37 10 0 8 58 3 69 -6z m1101 2 c0 -2 -8 -10 -17 -17 -16 -13 -17
-12 -4 4 13 16 21 21 21 13z m-1042 -13 c-10 -2 -26 -2 -35 0 -10 3 -2 5 17 5
19 0 27 -2 18 -5z m1332 -47 c0 -2 -7 -7 -16 -10 -8 -3 -12 -2 -9 4 6 10 25
14 25 6z m237 -46 l26 -20 -39 -1 c-22 -1 -48 -3 -59 -4 -126 -14 -199 -27
-255 -45 -40 -13 -100 -23 -100 -16 0 10 177 67 258 84 123 24 140 25 169 2z
m-272 0 c-27 -12 -43 -12 -25 0 8 5 22 9 30 9 10 0 8 -3 -5 -9z m-1465 -16
c52 -3 97 -8 99 -10 2 -2 -38 -4 -90 -5 -104 -1 -247 -7 -296 -13 -18 -2 -33
-1 -33 3 0 4 15 15 33 24 25 14 49 16 112 12 44 -4 123 -8 175 -11z m137 -10
c-3 -3 -12 -4 -19 -1 -8 3 -5 6 6 6 11 1 17 -2 13 -5z m1652 -18 c-2 -2 -29
-7 -59 -11 -99 -11 -134 -16 -175 -25 -42 -10 -112 -13 -104 -5 3 2 23 7 45
11 21 3 42 8 45 9 3 2 39 7 80 11 41 3 75 7 76 8 4 3 96 6 92 2z m-1389 -20
c263 -12 186 -21 -197 -24 -213 -1 -425 -3 -470 -5 -77 -3 -117 3 -97 16 5 3
70 8 144 12 74 4 136 8 137 9 5 4 355 -2 483 -8z m769 -4 c-7 -10 -18 -19 -26
-19 -10 0 -7 7 8 18 30 23 32 23 18 1z m61 15 c0 -2 -10 -12 -22 -23 l-23 -19
19 23 c18 21 26 27 26 19z m-439 -107 c7 0 10 -3 6 -6 -9 -9 -129 35 -158 57
-15 12 8 5 58 -16 44 -19 87 -35 94 -35z m-128 10 l78 -40 -68 -1 c-37 -1
-111 -3 -163 -5 -317 -10 -496 -7 -577 11 -46 10 -83 21 -83 26 0 4 26 13 58
20 31 6 71 15 87 19 17 4 156 8 310 9 l281 1 77 -40z m193 15 c-22 -9 -38 -10
-60 -2 -53 17 -47 22 22 18 64 -3 66 -4 38 -16z m634 18 c0 -4 -114 -7 -253
-5 l-254 3 -58 -29 c-32 -17 -65 -27 -74 -24 -11 4 -9 7 9 12 14 4 40 16 59
28 32 20 49 21 303 22 147 0 268 -3 268 -7z m64 -3 c-8 -7 -54 -7 -54 0 0 4
13 7 29 6 16 0 27 -3 25 -6z m40 2 c3 -5 -1 -9 -9 -9 -8 0 -12 4 -9 9 3 4 7 8
9 8 2 0 6 -4 9 -8z m214 -9 c-10 -2 -26 -2 -35 0 -10 3 -2 5 17 5 19 0 27 -2
18 -5z m-1923 -72 c91 -23 109 -34 40 -26 -65 7 -134 25 -141 36 -8 13 16 11
101 -10z m1662 -41 c15 -44 16 -177 2 -218 -12 -35 -4 -32 -184 -57 -60 -9
-159 -24 -220 -35 -123 -21 -244 -32 -490 -45 -274 -14 -384 -23 -398 -32 -4
-2 -30 -7 -56 -10 -55 -6 -58 -2 -60 72 -3 100 -16 217 -31 290 -5 22 -8 40
-7 41 5 5 341 14 767 20 256 4 466 7 467 9 2 1 47 1 100 1 l98 -1 12 -35z
m-1443 -167 c7 -57 10 -103 6 -103 -5 0 -11 41 -35 250 -4 33 -4 33 6 -5 6
-22 16 -86 23 -142z m-217 81 c-3 -3 -12 -4 -19 -1 -8 3 -5 6 6 6 11 1 17 -2
13 -5z m147 -20 c34 -6 30 -14 -7 -14 -20 0 -37 -4 -37 -10 0 -9 18 -13 63
-13 23 0 21 -6 -5 -16 l-23 -9 25 -10 25 -11 -25 -1 c-70 -3 -82 -1 -93 13 -7
8 -21 17 -32 20 -18 4 -18 5 3 6 27 1 30 21 3 21 -11 0 -23 5 -26 10 -3 6 0
10 7 10 9 0 9 3 -2 11 -14 9 57 5 124 -7z m1640 -145 c119 -36 118 -34 16 -58
-81 -19 -115 -21 -235 -17 -77 2 -151 5 -165 6 -26 2 79 23 170 34 81 10 99
16 105 37 8 24 22 24 109 -2z m-1639 -26 c26 -3 45 -11 45 -18 0 -8 -8 -11
-20 -8 -27 7 -72 -5 -68 -19 2 -6 26 -18 52 -25 27 -8 45 -17 42 -20 -9 -10
-160 37 -186 58 l-25 19 29 -10 c20 -7 32 -8 40 0 7 7 6 10 -2 10 -6 0 -9 7
-5 16 4 11 13 14 29 10 13 -4 44 -9 69 -13z m1815 -22 c0 -5 -46 -27 -102 -49
-152 -58 -148 -57 -148 -30 0 21 10 26 123 54 67 17 123 32 125 32 1 1 2 -2 2
-7z m-1979 -23 c16 -12 74 -37 127 -55 94 -32 95 -33 42 -27 -59 5 -183 46
-214 69 -18 13 -15 35 5 35 5 0 23 -10 40 -22z m246 -15 c-3 -10 -5 -4 -5 12
0 17 2 24 5 18 2 -7 2 -21 0 -30z m-478 -29 c26 -33 26 -35 0 -65 -36 -41 -94
-122 -123 -171 -29 -51 -33 -53 -55 -39 -28 18 52 227 106 277 33 31 47 30 72
-2z m1807 13 c2 -2 -5 -30 -16 -62 -15 -47 -18 -84 -16 -170 4 -121 7 -141 36
-216 11 -27 20 -52 20 -54 0 -2 -24 -2 -52 0 -140 12 -178 15 -248 20 -41 2
-109 7 -150 10 -80 5 -359 14 -603 19 -81 2 -150 6 -152 8 -10 10 -28 201 -29
313 l-1 69 35 8 c41 8 118 15 285 23 66 3 137 8 157 10 l37 4 -4 -47 c-2 -26
-4 -105 -5 -175 -2 -115 2 -149 14 -136 2 2 7 82 10 178 3 96 7 175 8 177 2 1
51 5 109 9 l106 7 -1 -201 c-1 -128 3 -201 9 -201 6 0 11 73 13 192 1 106 5
198 7 205 2 6 21 13 42 15 44 4 385 -1 389 -5z m68 -29 c-47 -91 -54 -288 -14
-407 20 -60 20 -93 0 -61 -14 22 -49 115 -55 147 -30 155 6 355 64 350 18 -1
18 -3 5 -29z m61 -227 c1 -273 -4 -298 -40 -208 -42 105 -50 248 -19 357 13
48 46 110 57 110 1 0 2 -117 2 -259z m-1769 238 c13 -22 8 -117 -9 -142 -19
-29 -117 -104 -209 -160 -61 -37 -63 -37 -70 -16 -11 28 25 93 108 198 84 106
158 155 180 120z m50 -8 c10 -9 93 -37 134 -45 l25 -5 1 -136 c0 -104 -2 -135
-12 -135 -7 0 -29 -16 -48 -36 -30 -31 -37 -34 -42 -20 -4 9 0 24 9 34 43 49
50 106 17 127 -23 14 -86 6 -153 -19 -81 -31 -116 -34 -72 -7 17 10 49 37 72
60 45 45 58 82 51 151 -4 40 0 47 18 31z m-499 -41 c41 -15 70 -71 71 -139 0
-29 -3 -63 -7 -74 -7 -18 -10 -15 -23 19 -9 21 -42 72 -73 113 -42 56 -53 76
-43 82 18 12 39 11 75 -1z m773 -25 c-3 -11 -5 -72 -5 -135 0 -86 5 -129 19
-170 19 -56 24 -76 25 -97 1 -14 21 -21 86 -28 101 -11 185 -27 185 -36 0 -5
5 -9 11 -9 31 0 149 -44 149 -55 0 -10 -15 -7 -60 11 -63 25 -100 31 -100 14
0 -5 4 -10 10 -10 16 0 122 -42 117 -47 -3 -2 -28 3 -56 13 -50 16 -69 15 -58
-3 3 -5 37 -17 76 -28 39 -10 71 -23 71 -27 0 -10 6 -11 -79 12 -47 13 -78 17
-84 11 -8 -8 23 -25 43 -24 3 0 15 -3 28 -8 13 -5 37 -11 55 -14 33 -6 43 -12
36 -20 -3 -2 -31 3 -62 12 -32 9 -61 13 -64 9 -11 -10 12 -22 73 -36 42 -10
54 -17 54 -33 0 -14 -5 -17 -17 -12 -10 3 -31 9 -48 11 -29 5 -29 5 -11 -10
11 -9 26 -16 33 -16 7 0 13 -5 13 -10 0 -6 -12 -5 -28 4 -36 19 -102 31 -102
19 0 -5 37 -22 83 -37 l82 -27 0 -48 0 -48 -105 34 c-58 18 -152 48 -210 67
-95 31 -136 37 -113 16 14 -14 327 -115 393 -127 13 -2 30 -9 37 -15 13 -10
26 7 22 28 -1 5 0 83 1 174 3 121 5 149 10 105 4 -33 6 -121 5 -195 -1 -125
-3 -138 -24 -167 -55 -75 -60 -222 -12 -396 11 -42 21 -79 21 -82 0 -2 -13 0
-28 6 -26 9 -29 15 -45 112 -30 172 -25 269 18 359 16 33 20 50 12 52 -7 2
-57 15 -112 29 -55 14 -158 43 -228 65 l-129 40 -21 -24 -21 -24 -13 31 c-7
17 -13 33 -13 35 0 1 23 3 50 2 54 0 70 8 135 66 22 20 47 38 57 41 17 6 38
53 34 77 -11 66 -50 91 -134 87 -31 -1 -74 -8 -95 -15 l-37 -13 25 43 c34 58
43 132 21 174 -9 18 -20 32 -24 32 -32 1 -46 47 -45 150 1 120 1 118 31 123
51 8 67 4 62 -18z m74 3 c3 -13 8 -68 11 -123 6 -103 13 -173 21 -213 4 -21 1
-23 -23 -20 -24 3 -30 11 -46 63 -22 68 -31 216 -17 266 14 50 46 65 54 27z
m-948 -30 c50 -39 124 -141 124 -171 0 -30 -28 -30 -67 0 -21 17 -72 50 -113
74 -89 51 -98 62 -63 71 14 4 32 16 40 27 18 27 43 26 79 -1z m-108 -100 c115
-60 192 -118 192 -145 0 -18 -8 -23 -47 -30 -72 -11 -151 -6 -202 13 -60 23
-116 60 -136 90 -14 22 -14 27 5 63 33 65 74 67 188 9z m781 -47 c22 -14 5
-55 -39 -95 -39 -35 -43 -36 -118 -36 -42 0 -87 -3 -99 -6 -21 -6 -21 -5 -9
38 10 34 19 45 42 52 16 4 58 19 94 31 70 25 107 30 129 16z m-439 -71 c8 -15
6 -23 -11 -39 -44 -41 -109 -33 -109 13 0 43 99 65 120 26z m146 -34 c-25 -66
-42 -75 -37 -20 2 31 9 49 24 59 29 21 32 12 13 -39z m-61 -17 c-2 -17 -9 -37
-16 -45 -18 -17 -147 -45 -155 -32 -9 14 13 35 44 41 15 3 36 14 47 24 18 17
61 41 76 42 4 1 5 -13 4 -30z m506 5 c18 -22 16 -92 -5 -132 -30 -58 -116
-127 -116 -93 0 10 -39 27 -54 23 -12 -4 1 60 23 111 39 89 115 135 152 91z
m1739 -45 c-47 -40 -175 -103 -191 -94 -7 5 6 15 38 27 27 10 78 36 114 58 77
47 85 49 39 9z m-2460 17 c0 -9 -66 -69 -101 -93 -32 -21 -42 -23 -71 -15 -19
5 -51 8 -71 7 -29 -3 -181 31 -156 34 3 1 50 10 105 22 155 33 294 54 294 45z
m539 -15 c7 -12 7 -30 0 -52 -5 -19 -12 -42 -14 -52 -16 -74 -39 -78 -82 -16
-42 61 -48 99 -15 99 9 0 35 9 57 19 22 11 41 20 42 20 1 1 7 -7 12 -18z
m-132 3 c-3 -3 -34 -8 -69 -9 -52 -3 -56 -2 -23 4 51 10 100 13 92 5z m-385
-33 c-3 -21 2 -33 22 -48 40 -32 35 -74 -14 -123 -24 -24 -50 -41 -65 -41 -14
-1 -31 -2 -37 -3 -7 -1 -21 4 -30 12 -10 8 -40 17 -68 20 -87 8 -78 31 33 86
40 19 92 56 117 81 24 25 45 45 45 45 1 0 0 -13 -3 -29z m315 -23 c16 -13 48
-43 72 -67 38 -39 42 -47 36 -75 -4 -17 -7 -38 -7 -47 0 -13 -11 -15 -78 -11
-74 4 -80 3 -105 -22 -14 -14 -23 -31 -19 -38 11 -18 -84 -3 -106 17 -22 20
-25 50 -9 92 21 55 55 56 180 8 50 -19 97 -35 105 -35 22 0 16 18 -8 26 -72
22 -131 60 -159 100 l-29 43 22 15 c32 22 73 20 105 -6z m43 12 c0 -5 -2 -10
-4 -10 -3 0 -8 5 -11 10 -3 6 -1 10 4 10 6 0 11 -4 11 -10z m585 -26 c50 -9
95 -21 100 -26 6 -6 5 -7 -5 -4 -16 5 -54 11 -135 21 -75 9 -95 14 -95 26 0 6
10 9 23 6 12 -3 63 -13 112 -23z m1512 9 c-3 -2 -17 -6 -33 -9 -27 -4 -28 -3
-11 10 16 12 56 12 44 -1z m-2362 -3 c-3 -5 -14 -10 -23 -9 -14 0 -13 2 3 9
27 11 27 11 20 0z m1334 1 c85 -1 69 -14 -41 -34 -91 -16 -151 -15 -221 4 -23
6 -51 13 -62 15 -92 19 -78 23 85 19 96 -2 204 -4 239 -4z m98 -7 c-3 -3 -12
-4 -19 -1 -8 3 -5 6 6 6 11 1 17 -2 13 -5z m-1338 -39 l21 -36 -28 5 c-15 2
-33 5 -39 5 -14 1 -18 43 -6 54 14 15 32 5 52 -28z m1666 21 c22 -2 78 -7 125
-10 47 -4 121 -9 165 -13 102 -9 154 -8 182 1 19 7 23 3 33 -31 6 -21 14 -94
17 -163 6 -153 4 -157 -87 -166 -36 -3 -83 -7 -105 -10 -22 -2 -69 -6 -105 -9
-36 -3 -81 -7 -100 -10 -19 -3 -68 -7 -109 -11 -41 -3 -88 -7 -105 -9 -17 -3
-58 -7 -91 -11 -33 -4 -99 -12 -147 -18 l-88 -12 -1 95 c0 104 -3 133 -20 231
-6 36 -13 77 -16 93 -3 22 -1 27 16 27 12 0 23 1 26 1 2 1 46 10 97 19 87 16
202 18 313 6z m-2125 -26 c19 1 44 1 55 0 l20 -1 -20 -9 c-32 -14 -104 -11
-167 6 -77 22 -65 36 15 18 34 -8 78 -14 97 -14z m2670 18 c0 -2 7 -41 15 -88
14 -78 19 -228 8 -257 -13 -35 -21 -3 -21 85 0 101 -7 180 -22 232 -7 23 -5
30 6 30 8 0 14 -1 14 -2z m96 -55 c24 -84 32 -164 25 -269 -1 -17 -9 -23 -35
-26 l-34 -4 2 86 c1 47 -5 127 -14 178 l-16 92 28 0 c25 0 29 -5 44 -57z
m-1111 -15 c21 -130 26 -173 30 -271 5 -122 2 -135 -27 -133 -25 1 -25 1 -32
176 -5 122 -11 192 -21 237 -5 20 5 30 31 32 6 1 15 -18 19 -41z m-71 0 c12
-78 18 -151 22 -280 4 -116 2 -138 -10 -138 -8 0 -22 -3 -32 -7 -11 -4 -15 -3
-10 5 14 23 10 228 -9 427 -1 10 15 25 27 25 4 0 9 -15 12 -32z m-94 13 c0 -5
-9 -7 -20 -4 -11 3 -20 7 -20 9 0 2 9 4 20 4 11 0 20 -4 20 -9z m-325 -35 c29
-19 33 -61 10 -92 -14 -19 -14 -18 -15 3 0 47 -73 62 -190 38 -77 -15 -100
-16 -100 -2 0 9 24 24 58 36 113 42 190 48 237 17z m-344 -6 c38 -21 16 -92
-31 -101 -29 -6 -69 11 -75 32 -17 54 51 98 106 69z m-796 -40 c3 -5 -1 -10
-9 -10 -9 0 -16 5 -16 10 0 6 4 10 9 10 6 0 13 -4 16 -10z m1104 -34 c11 -12
10 -19 -9 -44 -54 -73 -128 -96 -213 -66 -56 20 -66 17 -34 -10 57 -47 87
-116 50 -116 -29 1 -164 82 -186 112 -29 38 -13 75 31 72 17 -1 45 8 64 19 20
14 71 28 133 37 108 17 142 16 164 -4z m-431 -20 c7 -4 9 -23 6 -50 -4 -24 -2
-52 5 -63 21 -40 -48 -94 -98 -78 -10 3 -27 24 -37 48 -10 23 -29 56 -41 73
-29 39 -29 49 0 69 16 12 39 15 88 12 36 -2 71 -7 77 -11z m-148 -152 c0 -6
10 -24 22 -39 19 -25 26 -27 70 -23 32 4 57 13 71 26 l21 21 42 -167 c23 -92
41 -168 39 -170 -4 -4 -34 27 -110 109 -54 58 -123 158 -169 241 -42 79 -46
96 -11 48 14 -19 25 -39 25 -46z m388 -85 c19 10 19 9 7 -42 -16 -69 -12 -196
9 -276 9 -35 14 -66 12 -68 -5 -6 -53 20 -84 45 -23 17 -46 94 -116 385 l-7
28 80 -42 c64 -33 83 -39 99 -30z m1919 35 c-2 -2 -48 -6 -103 -9 -54 -2 -124
-7 -154 -9 -30 -3 -89 -8 -130 -12 -41 -3 -83 -8 -94 -10 -10 -2 -51 -6 -90
-10 -39 -3 -74 -8 -78 -11 -4 -2 -65 -6 -135 -9 -70 -3 -143 -7 -160 -8 -18
-2 -31 -1 -28 3 2 4 28 8 56 10 29 1 55 4 59 6 3 2 42 6 85 10 44 3 96 8 115
10 19 3 64 7 100 10 36 3 88 8 115 11 28 3 73 7 100 9 83 8 289 35 293 40 2 2
15 -3 28 -12 14 -9 23 -17 21 -19z m-1814 20 c3 -4 0 -19 -8 -34 -40 -78 -35
-277 11 -433 5 -15 2 -16 -19 -6 -39 18 -62 116 -61 264 0 101 4 128 22 168
19 43 39 57 55 41z m147 -48 c58 -18 139 -42 180 -52 41 -10 76 -19 78 -20 2
-1 -3 -15 -11 -31 -38 -74 -44 -216 -17 -353 6 -30 13 -65 16 -77 3 -14 0 -23
-8 -23 -7 0 -87 23 -176 52 -181 58 -177 56 -199 153 -31 144 -28 295 7 353
11 18 21 32 22 32 2 0 50 -15 108 -34z m-689 -52 c25 -27 17 -31 -21 -9 -30
17 -50 19 -50 5 0 -6 15 -17 33 -25 20 -9 25 -14 14 -15 -27 0 -53 16 -75 47
l-20 28 48 -3 c35 -3 54 -10 71 -28z m1359 -1 c-8 -4 -20 -13 -26 -21 -10 -13
-14 -13 -34 1 l-22 15 28 5 c45 6 72 6 54 0z m-124 -43 c-85 -94 -95 -220 -35
-416 12 -38 28 -82 36 -97 8 -16 12 -31 10 -34 -7 -7 -191 49 -199 61 -5 8
-26 83 -44 161 -13 54 -15 177 -5 221 20 83 36 96 148 119 129 27 128 27 89
-15z m587 -37 c-7 -2 -21 -2 -30 0 -10 3 -4 5 12 5 17 0 24 -2 18 -5z m-1753
-148 c15 -18 34 -20 27 -2 -3 6 -13 30 -22 52 l-16 40 36 -37 c19 -21 35 -48
35 -60 1 -13 3 -40 6 -60 l6 -38 -31 11 c-38 14 -81 56 -82 83 -2 27 -2 76 1
96 1 8 7 -4 15 -28 7 -23 19 -49 25 -57z m1493 78 c-7 -2 -19 -2 -25 0 -7 3
-2 5 12 5 14 0 19 -2 13 -5z m280 0 c-7 -2 -19 -2 -25 0 -7 3 -2 5 12 5 14 0
19 -2 13 -5z m-324 -7 c-2 -2 -33 -6 -69 -10 -66 -6 -107 -12 -147 -21 -13 -3
-23 -1 -23 4 0 10 35 18 105 24 64 6 139 7 134 3z m-1652 -53 c-3 -5 -8 -25
-11 -45 -9 -56 10 -55 24 2 13 56 25 63 34 23 4 -16 9 -36 12 -45 6 -21 -75
-113 -88 -100 -5 5 -12 33 -15 63 -4 45 -2 58 17 82 19 24 38 38 27 20z m2200
1 c-3 -3 -12 -4 -19 -1 -8 3 -5 6 6 6 11 1 17 -2 13 -5z"/>
<path d="M3520 2620 c0 -12 27 -24 78 -35 53 -11 37 13 -20 30 -61 18 -58 18
-58 5z"/>
<path d="M3454 2565 c22 -16 66 -20 66 -6 0 10 -35 21 -65 21 -20 -1 -20 -1
-1 -15z"/>
<path d="M3402 2549 c6 -19 269 -102 281 -90 7 7 6 12 -4 15 -11 5 -156 50
-263 82 -12 4 -17 2 -14 -7z"/>
<path d="M3154 4489 c-9 -16 18 -30 33 -17 7 6 10 14 7 19 -7 13 -31 11 -40
-2z"/>
<path d="M3286 4482 c-8 -13 11 -35 23 -28 16 10 14 36 -3 36 -8 0 -17 -4 -20
-8z"/>
<path d="M3330 4426 c0 -9 7 -16 16 -16 9 0 14 5 12 12 -6 18 -28 21 -28 4z"/>
<path d="M3064 4405 c-9 -19 -9 -27 1 -35 15 -12 31 3 20 19 -3 5 -1 12 5 16
14 9 13 25 -2 25 -7 0 -18 -11 -24 -25z"/>
<path d="M3020 3682 c0 -13 84 -31 89 -19 5 13 -1 15 -47 23 -27 4 -42 3 -42
-4z"/>
<path d="M4955 3213 c-43 -11 -66 -23 -61 -32 7 -10 94 13 110 29 11 11 -13
12 -49 3z"/>
<path d="M4905 3159 c-43 -16 -83 -33 -89 -39 -16 -16 2 -24 28 -12 13 6 27 7
32 3 13 -12 115 21 110 35 -2 6 0 16 6 22 22 22 -11 19 -87 -9z"/>
<path d="M4923 3101 c-46 -18 -70 -37 -61 -47 3 -3 19 1 35 9 15 8 47 20 71
26 44 12 57 32 20 30 -13 -1 -42 -9 -65 -18z"/>
<path d="M4950 3074 c-49 -15 -99 -49 -88 -59 4 -4 31 4 60 18 29 13 63 28 76
31 23 8 31 26 10 25 -7 0 -33 -7 -58 -15z"/>
<path d="M4933 3026 c-65 -31 -91 -51 -81 -61 7 -7 168 75 168 86 0 14 -11 11
-87 -25z"/>
<path d="M4975 3007 c-101 -61 -125 -79 -125 -93 0 -15 2 -15 23 0 12 8 50 32
84 52 35 19 65 40 69 45 8 13 -27 10 -51 -4z"/>
<path d="M5048 2335 c-2 -2 -39 -6 -83 -9 -108 -9 -145 -16 -145 -28 0 -7 23
-8 63 -4 34 3 91 8 127 11 86 8 112 14 105 25 -5 7 -60 11 -67 5z"/>
<path d="M5010 2105 c0 -8 14 -11 43 -9 23 1 48 3 55 3 6 1 12 6 12 12 0 6
-22 9 -55 8 -35 -2 -55 -7 -55 -14z"/>
<path d="M4925 2062 c-50 -4 -76 -12 -71 -21 3 -5 29 -7 58 -5 29 3 80 6 113
8 33 2 66 5 73 5 6 1 12 6 12 12 0 9 -91 10 -185 1z"/>
<path d="M5088 2026 c-1 -2 -64 -6 -138 -9 -74 -4 -146 -9 -160 -11 -14 -2
-61 -7 -104 -11 -43 -4 -86 -8 -95 -10 -9 -1 -37 -6 -63 -9 -27 -4 -48 -12
-48 -18 0 -9 21 -8 150 7 14 2 57 6 95 10 39 4 81 8 95 10 14 3 83 7 155 10
122 6 166 15 132 28 -8 3 -17 4 -19 3z"/>
<path d="M5020 1982 c-75 -6 -255 -34 -268 -41 -26 -15 5 -22 50 -12 24 6 72
13 108 17 36 4 72 8 80 10 8 1 32 3 53 3 20 1 37 5 37 10 0 12 -19 17 -60 13z"/>
</g>
</svg>
